<svg width="32" height="18" viewBox="0 0 32 18" fill="none" xmlns="http://www.w3.org/2000/svg">
    <path
        d="M23.485 13.331a1.3 1.3 0 0 1-1.303-1.295 1.3 1.3 0 0 1 1.303-1.296 1.3 1.3 0 0 1 1.302 1.296 1.3 1.3 0 0 1-1.302 1.295Zm-14.4 0a1.3 1.3 0 0 1-1.302-1.295 1.3 1.3 0 0 1 1.303-1.296 1.3 1.3 0 0 1 1.302 1.296 1.3 1.3 0 0 1-1.302 1.295Zm14.867-7.803 2.603-4.484a.537.537 0 0 0-.198-.736.545.545 0 0 0-.74.197l-2.636 4.54a16.15 16.15 0 0 0-6.696-1.424c-2.416 0-4.68.51-6.696 1.425L6.953.505a.542.542 0 0 0-.938.539l2.603 4.484C4.148 7.946 1.09 12.447.643 17.764h31.284c-.447-5.317-3.505-9.818-7.975-12.236"
        fill="#3DDB85" />
</svg>