<svg id="visual" viewBox="0 0 900 600" width="900" height="600" xmlns="http://www.w3.org/2000/svg"
>
    <g fill="#f6f5ff">
        <circle r="55" cx="546" cy="324" />
        <circle r="4" cx="450" cy="87" />
        <circle r="30" cx="746" cy="579" />
        <circle r="3" cx="421" cy="530" />
        <circle r="44" cx="849" cy="470" />
        <circle r="28" cx="704" cy="209" />
        <circle r="25" cx="215" cy="468" />
        <circle r="39" cx="66" cy="459" />
        <circle r="10" cx="558" cy="515" />
        <circle r="16" cx="692" cy="100" />
        <circle r="30" cx="129" cy="177" />
        <circle r="11" cx="453" cy="248" />
        <circle r="22" cx="263" cy="5" />
        <circle r="20" cx="693" cy="471" />
        <circle r="44" cx="893" cy="37" />
        <circle r="44" cx="896" cy="568" />
        <circle r="46" cx="254" cy="167" />
        <circle r="22" cx="581" cy="137" />
        <circle r="34" cx="849" cy="339" />
        <circle r="3" cx="99" cy="14" />
        <circle r="14" cx="37" cy="596" />
        <circle r="49" cx="796" cy="150" />
        <circle r="8" cx="392" cy="419" />
        <circle r="14" cx="108" cy="321" />
        <circle r="39" cx="285" cy="305" />
        <circle r="30" cx="16" cy="219" />
        <circle r="52" cx="784" cy="33" />
        <circle r="38" cx="692" cy="349" />
        <circle r="22" cx="310" cy="536" />
        <circle r="13" cx="363" cy="178" />
        <circle r="51" cx="215" cy="589" />
        <circle r="25" cx="1" cy="89" />
        <circle r="41" cx="899" cy="224" />
        <circle r="51" cx="533" cy="5" />
        <circle r="14" cx="633" cy="596" />
        <circle r="35" cx="3" cy="359" />
    </g>
</svg>
  