<svg width="33" height="28" viewBox="0 0 33 28" fill="none" xmlns="http://www.w3.org/2000/svg">
    <path
        d="M1.78.012a1.007 1.007 0 0 0-.977.726.991.991 0 0 0-.025.43l4.256 25.688c.053.315.215.6.459.807.244.207.553.322.874.325H26.78a1.005 1.005 0 0 0 1.002-.838l4.255-25.976A.991.991 0 0 0 31.46.105a1.007 1.007 0 0 0-.425-.087L1.781.012Zm17.918 18.566h-6.515l-1.764-9.166h9.858l-1.579 9.166Z"
        fill="#2684FF" />
    <path
        d="M30.658 9.4h-9.4l-1.577 9.158h-6.51L5.484 27.63c.244.21.554.326.876.329h20.402a.995.995 0 0 0 1.002-.837L30.658 9.4Z"
        fill="url(#a)" />
    <defs>
        <linearGradient id="a" x1="32.832" y1="11.964" x2="22.054" y2="27.352"
            gradientUnits="userSpaceOnUse">
            <stop offset=".18" stop-color="#0052CC" />
            <stop offset="1" stop-color="#2684FF" />
        </linearGradient>
    </defs>
</svg>