<svg width="22" height="32" viewBox="0 0 22 32" fill="none" xmlns="http://www.w3.org/2000/svg"><path d="M5.815 31.556A5.187 5.187 0 0 0 11 26.37v-5.185H5.815A5.187 5.187 0 0 0 .63 26.37a5.187 5.187 0 0 0 5.185 5.186Z" fill="#0ACF83"/><path d="M.63 16a5.187 5.187 0 0 1 5.185-5.185H11v10.37H5.815A5.187 5.187 0 0 1 .63 16Z" fill="#A259FF"/><path d="M.63 5.63A5.187 5.187 0 0 1 5.815.444H11v10.37H5.815A5.187 5.187 0 0 1 .63 5.63Z" fill="#F24E1E"/><path d="M11 .444h5.185A5.187 5.187 0 0 1 21.37 5.63a5.187 5.187 0 0 1-5.185 5.185H11V.445Z" fill="#FF7262"/><path d="M21.37 16a5.187 5.187 0 0 1-5.185 5.185A5.187 5.187 0 0 1 11 16a5.187 5.187 0 0 1 5.185-5.185A5.187 5.187 0 0 1 21.37 16Z" fill="#1ABCFE"/></svg>