<svg width="23" height="32" viewBox="0 0 23 32" fill="none" xmlns="http://www.w3.org/2000/svg">
    <path d="m15.135 11.682-3.129 2.897L9.102 8.75l1.5-3.351c.38-.669 1-.678 1.379 0l3.154 6.282Z"
        fill="#FFA000" />
    <path d="M12.008 14.577.304 25.402l8.8-16.651 2.904 5.826Z" fill="#F57F17" />
    <path
        d="M18.566 7.251c.56-.53 1.137-.352 1.283.402l3.043 17.603L12.8 31.28c-.354.196-1.292.273-1.292.273s-.854-.103-1.18-.282L.303 25.402l18.262-18.15Z"
        fill="#FFCA28" />
    <path d="M9.103 8.75.304 25.403 4.226 1.064C4.373.31 4.803.233 5.19.9l3.912 7.85Z"
        fill="#FFA000" />
</svg>