<svg width="32" height="32" viewBox="0 0 32 32" fill="none" xmlns="http://www.w3.org/2000/svg">
    <path
        d="M30.835 14.614 17.175 1.03a2.023 2.023 0 0 0-2.849 0L11.49 3.85l3.598 3.579a2.401 2.401 0 0 1 2.461.57c.67.667.858 1.629.569 2.463l3.468 3.449a2.403 2.403 0 0 1 2.477.566c.936.93.936 2.44 0 3.37a2.407 2.407 0 0 1-3.392 0 2.376 2.376 0 0 1-.521-2.592l-3.234-3.216v8.463a2.375 2.375 0 0 1 .634 3.823 2.406 2.406 0 0 1-3.39 0 2.375 2.375 0 0 1 0-3.372c.224-.223.49-.4.784-.52v-8.542a2.37 2.37 0 0 1-.785-.52 2.374 2.374 0 0 1-.516-2.607l-3.547-3.527L.73 14.55a1.996 1.996 0 0 0 0 2.834l13.66 13.583a2.023 2.023 0 0 0 2.849 0l13.595-13.52a1.997 1.997 0 0 0 0-2.834"
        fill="#DE4C36" />
</svg>