<svg width="33" height="32" viewBox="0 0 33 32" fill="none" xmlns="http://www.w3.org/2000/svg">
    <path
        d="M16.47.828C7.83.828.826 7.793.826 16.384c0 6.873 4.482 12.704 10.697 14.76.782.145 1.069-.337 1.069-.747 0-.371-.015-1.597-.021-2.897-4.352.941-5.27-1.835-5.27-1.835-.712-1.798-1.737-2.276-1.737-2.276-1.42-.966.107-.946.107-.946 1.57.11 2.398 1.603 2.398 1.603 1.395 2.378 3.66 1.69 4.552 1.294.14-1.006.546-1.692.993-2.08-3.475-.394-7.127-1.728-7.127-7.688 0-1.699.611-3.086 1.612-4.176-.163-.392-.698-1.974.151-4.116 0 0 1.314-.418 4.303 1.594a15.064 15.064 0 0 1 3.915-.523c1.33.006 2.669.178 3.92.523 2.985-2.012 4.297-1.594 4.297-1.594.85 2.142.315 3.724.153 4.116 1.003 1.09 1.61 2.477 1.61 4.176 0 5.974-3.66 7.29-7.143 7.675.561.483 1.061 1.43 1.061 2.88 0 2.082-.018 3.757-.018 4.27 0 .413.282.899 1.075.746 6.211-2.06 10.688-7.888 10.688-14.759 0-8.591-7.004-15.556-15.643-15.556Z"
        fill="#161614" />
    <path
        d="M6.685 22.988c-.034.077-.156.1-.268.047-.113-.05-.177-.156-.14-.233.034-.08.156-.102.27-.049.113.05.178.157.138.235Zm.77.683c-.075.068-.22.036-.32-.072-.102-.109-.121-.254-.045-.324.077-.068.218-.036.32.072.103.11.123.254.045.324Zm.528.873c-.096.066-.253.004-.35-.134-.096-.138-.096-.304.002-.37.098-.067.252-.008.35.13.096.14.096.306-.002.374Zm.892 1.012c-.085.094-.268.069-.402-.06-.136-.125-.174-.303-.088-.397.086-.094.27-.068.405.06.135.125.177.304.086.397Zm1.154.341c-.038.122-.213.178-.39.126-.178-.053-.293-.196-.258-.32.037-.122.214-.18.392-.124.177.053.293.194.256.318Zm1.313.145c.005.128-.146.235-.332.237-.187.004-.338-.1-.34-.226 0-.13.147-.235.334-.238.186-.003.338.1.338.227Zm1.29-.049c.023.125-.107.254-.291.288-.182.033-.35-.044-.373-.168-.023-.129.109-.257.29-.29.185-.032.35.043.374.17Z"
        fill="#161614" />
</svg>