<svg width="56" height="56" viewBox="0 0 56 56" fill="none" xmlns="http://www.w3.org/2000/svg">
    <rect width="56" height="56" rx="16" fill="white" />
    <path
        d="M28.0001 8C16.9558 8 8 17.1808 8 28.5063C8 37.5666 13.7306 45.2532 21.6773 47.9648C22.6768 48.1546 23.0439 47.5199 23.0439 46.9783C23.0439 46.4893 23.0252 44.8738 23.0167 43.1604C17.4525 44.4008 16.2785 40.7409 16.2785 40.7409C15.3687 38.3706 14.0578 37.7405 14.0578 37.7405C12.2433 36.4677 14.1946 36.4938 14.1946 36.4938C16.203 36.6385 17.2605 38.607 17.2605 38.607C19.0443 41.742 21.9393 40.8356 23.0806 40.3118C23.26 38.9863 23.7784 38.0818 24.3503 37.5697C19.9081 37.051 15.2382 35.2927 15.2382 27.4353C15.2382 25.1966 16.0195 23.3672 17.299 21.9312C17.0913 21.4146 16.4068 19.329 17.4927 16.5044C17.4927 16.5044 19.1722 15.9532 22.9941 18.6064C24.5894 18.1519 26.3004 17.9242 28.0001 17.9165C29.6998 17.9242 31.412 18.1519 33.0104 18.6064C36.8278 15.9532 38.505 16.5044 38.505 16.5044C39.5936 19.329 38.9087 21.4146 38.701 21.9312C39.9833 23.3672 40.7593 25.1965 40.7593 27.4353C40.7593 35.3114 36.0806 37.0457 31.6271 37.5533C32.3444 38.1897 32.9836 39.4377 32.9836 41.3508C32.9836 44.0945 32.9604 46.3028 32.9604 46.9783C32.9604 47.5239 33.3204 48.1634 34.3343 47.962C42.2766 45.2474 48 37.5636 48 28.5063C48 17.1808 39.0455 8 28.0001 8Z"
        fill="#161614" />
</svg>
    