<svg width="15" height="32" viewBox="0 0 15 32" fill="none" xmlns="http://www.w3.org/2000/svg">
    <path
        d="m7.623.53.835 1.559c.187.288.39.542.63.78a21.895 21.895 0 0 1 1.96 2.202c1.414 1.847 2.368 3.899 3.05 6.117a14.96 14.96 0 0 1 .646 4.151c.069 4.203-1.38 7.811-4.3 10.81-.476.476-.99.912-1.536 1.305-.289 0-.426-.22-.545-.424a3.476 3.476 0 0 1-.426-1.22c-.103-.508-.17-1.017-.137-1.542v-.237C7.776 23.981 7.52.65 7.623.53Z"
        fill="#599636" />
    <path
        d="M7.623.478C7.589.41 7.554.46 7.52.494c.017.34-.102.644-.29.934-.204.287-.476.508-.749.745-1.515 1.305-2.708 2.88-3.663 4.643C1.548 9.188.892 11.73.706 14.406c-.085.966.307 4.373.613 5.356.835 2.609 2.335 4.795 4.277 6.693.477.457.988.88 1.516 1.288.153 0 .17-.136.205-.237.067-.217.118-.438.153-.661l.343-2.542L7.622.478Z"
        fill="#6CAC48" />
    <path
        d="M8.458 28.486c.034-.388.222-.711.426-1.033-.205-.084-.358-.253-.477-.44a3.132 3.132 0 0 1-.254-.56c-.239-.71-.29-1.457-.358-2.185v-.44c-.085.068-.103.643-.103.73-.05.768-.152 1.532-.307 2.287-.05.305-.085.61-.273.88 0 .034 0 .068.016.119.307.898.391 1.813.443 2.745v.34c0 .407-.017.321.323.457.136.051.289.069.426.17.103 0 .12-.085.12-.153l-.052-.56v-1.558c-.016-.273.035-.543.069-.797v-.002Z"
        fill="#C2BFBF" />
</svg>