<svg width="30" height="32" viewBox="0 0 30 32" fill="none" xmlns="http://www.w3.org/2000/svg">
    <path
        d="M13.726.776a2.61 2.61 0 0 1 2.547 0c3.878 2.191 7.756 4.379 11.633 6.571.73.411 1.217 1.223 1.21 2.063v13.182c.005.875-.53 1.706-1.3 2.107l-11.592 6.54a2.535 2.535 0 0 1-2.575-.072c-1.158-.672-2.32-1.34-3.478-2.01-.237-.142-.504-.254-.67-.484.147-.2.411-.224.626-.311.484-.154.928-.4 1.372-.64.113-.077.25-.048.357.021.991.568 1.973 1.153 2.967 1.716.213.122.427-.04.608-.142 3.793-2.143 7.59-4.279 11.382-6.423a.377.377 0 0 0 .207-.37c.003-4.349 0-8.698.001-13.047a.408.408 0 0 0-.243-.406L15.227 2.56a.401.401 0 0 0-.454 0c-3.85 2.17-7.7 4.344-11.55 6.513a.403.403 0 0 0-.244.404v13.047a.37.37 0 0 0 .21.366c1.027.583 2.056 1.162 3.084 1.742.58.312 1.29.497 1.929.258a1.46 1.46 0 0 0 .947-1.374c.005-4.323-.003-8.647.004-12.97-.014-.191.168-.35.355-.332.493-.003.988-.007 1.481.001.206-.004.348.202.323.396-.002 4.35.005 8.7-.003 13.051 0 1.16-.475 2.421-1.548 2.989-1.321.684-2.954.539-4.26-.117-1.13-.564-2.208-1.23-3.318-1.834-.771-.4-1.304-1.234-1.299-2.108V9.41c-.008-.858.5-1.684 1.251-2.089C6 5.141 9.863 2.958 13.726.776Z"
        fill="#8CC84B" />
    <path
        d="M17.097 9.908c1.686-.109 3.49-.065 5.006.766 1.175.636 1.826 1.971 1.846 3.276-.033.176-.216.273-.384.26-.49 0-.979.007-1.468-.003-.207.008-.327-.183-.354-.366-.14-.624-.48-1.243-1.068-1.544-.902-.451-1.947-.429-2.93-.42-.719.039-1.49.101-2.099.523-.467.32-.609.966-.442 1.486.157.373.588.493.94.604 2.032.531 4.184.479 6.176 1.178.825.285 1.632.839 1.914 1.702.37 1.158.208 2.541-.616 3.47-.668.765-1.64 1.181-2.61 1.407-1.29.288-2.63.295-3.94.168-1.233-.14-2.516-.465-3.467-1.304-.813-.707-1.21-1.807-1.171-2.87.01-.179.188-.304.36-.29.492-.003.984-.005 1.477.001.197-.014.342.156.352.342.091.594.315 1.218.833 1.571 1.001.646 2.257.601 3.403.62.95-.043 2.015-.055 2.79-.683.408-.358.53-.956.419-1.472-.12-.434-.575-.637-.965-.77-2.005-.634-4.182-.404-6.167-1.121-.806-.285-1.586-.823-1.896-1.652-.432-1.172-.234-2.622.676-3.52.887-.892 2.168-1.236 3.385-1.36Z"
        fill="#8CC84B" />
</svg>