<svg width="56" height="56" viewBox="0 0 56 56" fill="none" xmlns="http://www.w3.org/2000/svg">
    <rect width="56" height="56" rx="16" fill="#fff" />
    <path
        d="M29.606 27.436 15.998 40.981A3.247 3.247 0 0 1 15 38.603V17.374a3.248 3.248 0 0 1 1.04-2.399l13.566 12.461Z"
        fill="url(#a)" />
    <path
        d="M41.494 27.988a3.334 3.334 0 0 1-1.783 2.93l-3.885 2.123-4.82-4.416-1.4-1.188 5.116-5.074 4.925 2.696a3.333 3.333 0 0 1 1.847 2.93Z"
        fill="url(#b)" />
    <path
        d="M29.606 27.436 16.04 14.954c.196-.178.41-.334.637-.467a3.588 3.588 0 0 1 3.61 0l14.499 7.918-5.18 5.031Z"
        fill="url(#c)" />
    <path
        d="m35.826 33.062-15.54 8.492a3.736 3.736 0 0 1-1.762.446 3.418 3.418 0 0 1-1.847-.51 4.057 4.057 0 0 1-.68-.51l13.609-13.543 1.337 1.21 4.883 4.415Z"
        fill="url(#d)" />
    <defs>
        <linearGradient id="a" x1="22.345" y1="40.11" x2="22.345" y2="15.909"
            gradientUnits="userSpaceOnUse">
            <stop stop-color="#00E4FF" />
            <stop offset=".99" stop-color="#0CF" />
        </linearGradient>
        <linearGradient id="b" x1="29.669" y1="27.712" x2="41.494" y2="27.712"
            gradientUnits="userSpaceOnUse">
            <stop offset=".01" stop-color="#FFBC00" />
            <stop offset="1" stop-color="#FFE100" />
        </linearGradient>
        <linearGradient id="c" x1="25.402" y1="27.436" x2="25.402" y2="13.977"
            gradientUnits="userSpaceOnUse">
            <stop stop-color="#00F055" />
            <stop offset=".99" stop-color="#00E05A" />
        </linearGradient>
        <linearGradient id="d" x1="25.912" y1="42" x2="25.912" y2="27.436"
            gradientUnits="userSpaceOnUse">
            <stop offset=".01" stop-color="#DE1646" />
            <stop offset="1" stop-color="#FF2B43" />
        </linearGradient>
    </defs>
</svg>