<svg width="32" height="32" viewBox="0 0 32 32" fill="none" xmlns="http://www.w3.org/2000/svg">
    <path
        d="M28.665 6.492a15.64 15.64 0 0 0-7.398-5.237 15.726 15.726 0 0 0-9.078-.268 15.654 15.654 0 0 0-7.697 4.794A15.515 15.515 0 0 0 .77 14.02a15.48 15.48 0 0 0 1.508 8.906 15.591 15.591 0 0 0 6.23 6.571 15.713 15.713 0 0 0 17.341-1.188c6.834-5.252 8.095-15.018 2.816-21.817Z"
        fill="#FF6C37" />
    <path d="m21.56 10.356-6.595 6.611-1.864-1.905c6.492-6.456 7.143-5.873 8.46-4.706Z" fill="#fff" />
    <path
        d="M14.965 17.148a.235.235 0 0 1-.156-.065l-1.877-1.866a.232.232 0 0 1 0-.325c6.4-6.364 7.273-6.066 8.785-4.705a.208.208 0 0 1 .079.168.182.182 0 0 1-.066.17l-6.595 6.559a.248.248 0 0 1-.17.064Zm-1.538-2.087 1.538 1.53 6.257-6.222a1.41 1.41 0 0 0-1.851-.312c-1.134.506-2.959 2.048-5.944 5.004Z"
        fill="#FF6C37" />
    <path d="m16.855 18.795-1.799-1.828 6.596-6.482c1.773 1.725-.86 4.602-4.797 8.31Z" fill="#fff" />
    <path
        d="M16.855 19.028a.275.275 0 0 1-.156-.065l-1.838-1.788a.272.272 0 0 1 0-.208.25.25 0 0 1 0-.169l6.596-6.559a.248.248 0 0 1 .338 0 2.012 2.012 0 0 1 .652 1.543c0 1.75-2.008 3.953-5.422 7.168a.275.275 0 0 1-.17.078Zm-1.46-2.061 1.473 1.464c2.607-2.45 5.097-4.978 5.11-6.689a1.472 1.472 0 0 0-.339-.998l-6.244 6.223Z"
        fill="#FF6C37" />
    <path
        d="m13.153 15.1 1.304 1.297a.077.077 0 0 1 .026.058.077.077 0 0 1-.026.059l-2.75.583a.262.262 0 0 1-.286-.132.258.258 0 0 1 .05-.31l1.604-1.58s.052 0 .078.025Z"
        fill="#fff" />
    <path
        d="M11.641 17.356a.51.51 0 0 1-.43-.247.49.49 0 0 1 .091-.583l1.59-1.594a.314.314 0 0 1 .418 0l1.303 1.296a.285.285 0 0 1 .078.285.301.301 0 0 1-.221.208l-2.75.583-.079.052Zm1.46-1.97-1.473 1.464 2.438-.518-.965-.946Z"
        fill="#FF6C37" />
    <path
        d="M25.068 6.713a2.54 2.54 0 0 0-3.415-.089A2.504 2.504 0 0 0 21.265 10a2.539 2.539 0 0 0 3.347.68l-1.773-1.762 2.229-2.204Z"
        fill="#fff" />
    <path
        d="M23.308 11.276a2.773 2.773 0 0 1-1.518-.476 2.75 2.75 0 0 1-1.157-2.804 2.749 2.749 0 0 1 .741-1.4 2.8 2.8 0 0 1 3.91 0 .22.22 0 0 1 0 .338l-2.111 1.983 1.603 1.569a.218.218 0 0 1 .065.194.232.232 0 0 1-.104.169c-.43.268-.926.415-1.433.428l.004-.001Zm0-5.03c-.929.005-1.76.56-2.108 1.41a2.281 2.281 0 0 0 .492 2.479 2.285 2.285 0 0 0 2.529.48l-1.539-1.53a.208.208 0 0 1 0-.324l2.034-2.036a2.347 2.347 0 0 0-1.408-.48Z"
        fill="#FF6C37" />
    <path
        d="m25.107 6.752-2.23 2.203 1.774 1.764a2.7 2.7 0 0 0 .495-.364 2.585 2.585 0 0 0-.04-3.603Z"
        fill="#fff" />
    <path
        d="M24.611 10.913a.199.199 0 0 1-.156-.065l-1.773-1.763a.208.208 0 0 1 0-.324l2.216-2.165a.234.234 0 0 1 .39 0 2.722 2.722 0 0 1 .822 1.945 2.71 2.71 0 0 1-.821 1.944 2.384 2.384 0 0 1-.522.415.212.212 0 0 1-.156.013Zm-1.434-1.996 1.473 1.465a2.5 2.5 0 0 0 .287-.234 2.286 2.286 0 0 0 .678-1.62 2.219 2.219 0 0 0-.56-1.478l-1.878 1.867Z"
        fill="#FF6C37" />
    <path
        d="M21.835 10.628a.955.955 0 0 0-1.304 0l-5.905 5.859.978.985 6.244-5.444a.961.961 0 0 0 .215-1.084.96.96 0 0 0-.228-.316Z"
        fill="#fff" />
    <path
        d="M15.552 17.706a.235.235 0 0 1-.157-.065l-.99-.985a.232.232 0 0 1 0-.324l5.905-5.847a1.2 1.2 0 0 1 1.324-.25 1.198 1.198 0 0 1 .722 1.132 1.215 1.215 0 0 1-.404.855l-6.244 5.444a.223.223 0 0 1-.156.04Zm-.691-1.22.652.662 6.126-5.302a.714.714 0 0 0 .248-.519.694.694 0 0 0-.222-.531.731.731 0 0 0-1.03 0l-5.774 5.69Z"
        fill="#FF6C37" />
    <path
        d="M10.051 23.163a.131.131 0 0 0 0 .155l.26 1.128a.334.334 0 0 1-.162.34.32.32 0 0 1-.372-.037L7.99 23.038l5.566-5.579h1.93l1.303 1.296a29.607 29.607 0 0 1-6.739 4.408Z"
        fill="#fff" />
    <path
        d="M9.934 25.069a.552.552 0 0 1-.391-.17l-1.708-1.697a.208.208 0 0 1 0-.324l5.605-5.587a.22.22 0 0 1 .117-.065H15.5a.236.236 0 0 1 .157 0l1.304 1.297a.207.207 0 0 1 .065.18.208.208 0 0 1-.079.17l-.104.09a31.954 31.954 0 0 1-6.687 4.265l.248 1.05a.556.556 0 0 1-.294.627.566.566 0 0 1-.24.06l.065.104Zm-1.59-2.036 1.537 1.543a.078.078 0 0 0 .105 0 .078.078 0 0 0 0-.091l-.261-1.128a.36.36 0 0 1 .196-.415 32.072 32.072 0 0 0 6.517-4.174l-1.07-1.063h-1.746l-5.278 5.328Z"
        fill="#FF6C37" />
    <path
        d="m6.649 24.369 1.303-1.297 2.008 1.997-3.193-.22a.261.261 0 0 1-.222-.358.26.26 0 0 1 .104-.122Z"
        fill="#fff" />
    <path
        d="m9.999 25.263-3.181-.22a.503.503 0 0 1-.417-.318.493.493 0 0 1 .104-.512l1.304-1.297a.235.235 0 0 1 .326 0l1.994 1.984a.219.219 0 0 1 0 .259.247.247 0 0 1-.13.103Zm-3.181-.726 2.607.169L7.99 23.37l-1.173 1.166Z"
        fill="#FF6C37" />
    <path d="m15.669 17.616-2.633.401 1.525-1.503 1.108 1.102Z" fill="#fff" />
    <path
        d="M13.036 18.263a.225.225 0 0 1-.209-.13.218.218 0 0 1 0-.259l1.512-1.517a.248.248 0 0 1 .339 0l1.108 1.102a.217.217 0 0 1 0 .233.228.228 0 0 1-.182.169l-2.607.402h.039Zm1.525-1.413-.847.842 1.46-.22-.613-.622Z"
        fill="#FF6C37" />
    <path
        d="m15.669 17.614-1.838.234a.236.236 0 0 1-.256-.113.232.232 0 0 1 .035-.276l.951-.947 1.108 1.102Z"
        fill="#fff" />
    <path
        d="M13.779 18.095a.484.484 0 0 1-.417-.247.464.464 0 0 1 .078-.557l.952-.947a.248.248 0 0 1 .338 0l1.109 1.102a.234.234 0 0 1-.144.402l-1.824.234-.092.013Zm0-.48 1.382-.169-.613-.609-.782.778h.013Zm11.34-9.372a.196.196 0 0 0-.247-.078.181.181 0 0 0-.079.247.555.555 0 0 1-.065.583.163.163 0 0 0-.049.123c.001.045.018.09.05.123.033.013.07.013.104 0a.172.172 0 0 0 .17-.052.891.891 0 0 0 .116-.947Z"
        fill="#FF6C37" />
</svg>