<svg width="33" height="34" viewBox="0 0 33 34" fill="none" xmlns="http://www.w3.org/2000/svg">
    <path
        d="M16.408 19.743A2.75 2.75 0 0 0 19.166 17a2.75 2.75 0 0 0-2.758-2.743A2.75 2.75 0 0 0 13.65 17a2.75 2.75 0 0 0 2.758 2.743Z"
        fill="#61DAFB" />
    <path fill-rule="evenodd" clip-rule="evenodd"
        d="M3.44 15.557c-.626.561-.832 1.05-.832 1.443 0 .392.206.882.831 1.443s1.586 1.112 2.859 1.596c2.538.963 6.112 1.58 10.11 1.58 3.997 0 7.572-.616 10.11-1.58 1.273-.484 2.234-1.035 2.859-1.596.625-.561.83-1.05.83-1.443 0-.392-.205-.882-.83-1.443s-1.586-1.112-2.859-1.596c-2.538-.963-6.113-1.58-10.11-1.58-3.998 0-7.572.617-10.11 1.58-1.273.484-2.234 1.035-2.859 1.596Zm2.148-3.465c2.818-1.07 6.644-1.711 10.82-1.711s8.002.64 10.82 1.71c1.405.534 2.612 1.194 3.485 1.978.872.783 1.495 1.771 1.495 2.931 0 1.16-.623 2.148-1.495 2.931-.873.784-2.08 1.444-3.485 1.977-2.818 1.07-6.644 1.711-10.82 1.711s-8.002-.64-10.82-1.71c-1.406-.534-2.612-1.194-3.485-1.977C1.231 19.148.608 18.16.608 17s.623-2.148 1.495-2.931c.873-.784 2.08-1.444 3.485-1.977Z"
        fill="#61DAFB" />
    <path fill-rule="evenodd" clip-rule="evenodd"
        d="M11.188 5.112c-.8-.258-1.332-.192-1.678.007-.346.198-.67.623-.846 1.442-.176.818-.175 1.92.04 3.257.43 2.667 1.68 6.052 3.677 9.494 1.998 3.441 4.322 6.21 6.43 7.913 1.056.854 2.016 1.406 2.816 1.663.801.258 1.333.191 1.679-.007.345-.198.67-.623.845-1.442.176-.818.176-1.92-.04-3.257-.43-2.667-1.678-6.052-3.677-9.494-1.998-3.442-4.321-6.21-6.429-7.913-1.056-.854-2.016-1.406-2.817-1.663Zm4.078.114c2.342 1.893 4.814 4.869 6.903 8.466 2.089 3.598 3.444 7.215 3.921 10.178.238 1.478.267 2.848.021 3.992-.246 1.144-.796 2.171-1.801 2.749-1.006.577-2.175.536-3.295.176-1.119-.36-2.297-1.07-3.465-2.013-2.342-1.893-4.814-4.869-6.903-8.466-2.089-3.598-3.444-7.215-3.922-10.178-.238-1.478-.266-2.848-.02-3.992.246-1.144.795-2.171 1.8-2.749 1.006-.577 2.176-.536 3.295-.176 1.12.36 2.298 1.07 3.466 2.013Z"
        fill="#61DAFB" />
    <path fill-rule="evenodd" clip-rule="evenodd"
        d="M24.151 6.56c-.176-.818-.5-1.242-.845-1.441-.346-.199-.878-.265-1.679-.007-.8.257-1.76.809-2.817 1.663-2.107 1.703-4.43 4.471-6.429 7.913-1.998 3.442-3.247 6.827-3.677 9.494-.215 1.337-.216 2.439-.04 3.257.176.819.5 1.244.846 1.442.346.198.878.265 1.678.007.801-.257 1.76-.809 2.817-1.663 2.108-1.703 4.431-4.472 6.43-7.913 1.998-3.442 3.247-6.827 3.676-9.494.216-1.337.216-2.439.04-3.257Zm1.94 3.57c-.478 2.963-1.833 6.58-3.922 10.178-2.089 3.597-4.56 6.573-6.903 8.466-1.168.944-2.347 1.653-3.466 2.013-1.119.36-2.289.401-3.294-.176-1.006-.578-1.555-1.605-1.801-2.75-.246-1.143-.218-2.513.02-3.99.478-2.964 1.833-6.581 3.922-10.179 2.089-3.597 4.56-6.573 6.903-8.466 1.168-.944 2.346-1.653 3.465-2.013 1.12-.36 2.29-.401 3.295.176 1.006.578 1.555 1.605 1.801 2.75.246 1.143.217 2.513-.02 3.99Z"
        fill="#61DAFB" />
</svg>