<svg width="212" height="212" viewBox="0 0 212 212" fill="none" xmlns="http://www.w3.org/2000/svg">
    <circle cx="105" cy="106" r="74" fill="#FFC240" stroke="#2d3436" stroke-width="8" />
    <mask id="a" style="mask-type:alpha" maskUnits="userSpaceOnUse" x="35" y="36" width="140"
        height="140">
        <circle cx="105" cy="106" r="70" fill="#FFC240" />
    </mask>
    <g mask="url(#a)">
        <circle cx="89" cy="106" r="70" fill="#FFC240" />
    </g>
    <mask id="b" style="mask-type:alpha" maskUnits="userSpaceOnUse" x="35" y="36" width="140"
        height="140">
        <circle cx="105" cy="106" r="70" fill="#FFC240" />
    </mask>
    <g mask="url(#b)" stroke="#2d3436" stroke-width="6">
        <circle cx="125" cy="43" r="9" transform="rotate(-90 125 43)" fill="#C5E0EF" />
        <circle cx="112" cy="173" r="10" transform="rotate(-90 112 173)" />
    </g>
    <path fill-rule="evenodd" clip-rule="evenodd"
        d="M81.368 55.047c0-2.96-3.014-4.947-5.614-3.53C62.53 58.718 52.22 70.596 47.04 84.93c-.912 2.523 1.044 5.07 3.727 5.07 1.79 0 3.357-1.172 3.982-2.85 4.503-12.088 13.213-22.128 24.349-28.34 1.373-.766 2.27-2.19 2.27-3.763Z"
        fill="#FFC240" />
    <circle cx="46.368" cy="99" r="4" fill="#FFC240" />
    <path fill-rule="evenodd" clip-rule="evenodd"
        d="M35.427 91.154a3.873 3.873 0 0 0 1.717-2.349c.848-3.344-2.685-6.444-5.625-4.64C12.095 96.092 1.063 110.424 3.422 123.8c4.383 24.858 53.35 37.002 109.371 27.124 56.021-9.878 97.882-38.037 93.499-62.895-.943-5.351-3.953-10.113-8.654-14.193-1.731-1.502-4.346-.958-5.569.981l-1.734 2.749a.592.592 0 0 0 .152.79c4.933 3.634 7.284 7.416 7.927 11.062.643 3.647-.272 8.004-3.665 13.106-3.424 5.148-9.114 10.614-17.02 15.932-15.793 10.624-39.151 19.798-66.325 24.589-27.174 4.792-52.26 4.16-70.735-.422-9.248-2.293-16.464-5.483-21.443-9.15-4.933-3.633-7.283-7.415-7.926-11.062-.643-3.646.272-8.004 3.665-13.105 3.424-5.149 9.114-10.614 17.02-15.933 1.11-.746 2.258-1.486 3.442-2.218Zm149.57-20.122c-1.085 1.72-3.277 2.352-5.165 1.596-3.209-1.285-6.81-2.437-10.787-3.423a105.813 105.813 0 0 0-3.68-.842 3.892 3.892 0 0 1-2.416-1.63c-1.936-2.857.338-6.97 3.718-6.27 6.118 1.268 11.7 2.923 16.626 4.935 2.221.907 2.984 3.605 1.704 5.634Z"
        fill="#2d3436" />
    <mask id="c" style="mask-type:alpha" maskUnits="userSpaceOnUse" x="27" y="28" width="156"
        height="156">
        <circle cx="105" cy="106" r="74" fill="#89BFF2" stroke="#2d3436" stroke-width="8" />
    </mask>
    <g mask="url(#c)" fill-rule="evenodd" clip-rule="evenodd" fill="#2d3436">
        <path
            d="M115.495 118.564c-.766 2.86 1.71 5.538 4.608 4.932 42.054-8.797 74.907-27.833 83.993-47.308 1.398-2.996-1.487-5.748-4.681-4.892-1.359.364-2.451 1.352-3.107 2.597a29.929 29.929 0 0 1-1.559 2.61c-3.424 5.15-9.114 10.615-17.02 15.933-14.38 9.673-35.03 18.144-59.122 23.199a4.083 4.083 0 0 0-3.112 2.929Zm-88.394.713c.232-.866-.576-1.655-1.443-1.423-1.064.285-1.215 1.723-.201 2.154l.087.037a1.148 1.148 0 0 0 1.557-.768Zm110.655 34.655c-.828 3.09 2.072 5.863 5.09 4.803 28.459-10 49.491-24.711 56.477-39.682 1.398-2.996-1.487-5.75-4.681-4.895-1.359.365-2.45 1.352-3.107 2.597a29.882 29.882 0 0 1-1.559 2.611c-3.424 5.149-9.113 10.614-17.019 15.932-8.753 5.888-19.828 11.33-32.588 15.828a4.11 4.11 0 0 0-2.613 2.806Zm-91.447 12.103c.62-2.31-.922-4.635-3.276-5.056a109.959 109.959 0 0 1-7.137-1.513 94.426 94.426 0 0 1-3.825-1.033 4.664 4.664 0 0 0-2.519-.039c-4.06 1.088-4.43 6.304-.405 7.516 3.952 1.19 8.21 2.19 12.729 2.989 1.996.353 3.909-.906 4.433-2.864Z" />
    </g>
    <circle cx="163" cy="27" r="10" fill="#FFC240" stroke="#2d3436" stroke-width="8" />
    <circle cx="183" cy="160" r="6" fill="#2d3436" />
    <circle cx="106" cy="123" r="4" transform="rotate(-90 106 123)" fill="#2d3436" />
    <circle cx="58" cy="129" r="7" transform="rotate(-90 58 129)" fill="#FFC240" stroke="#2d3436"
        stroke-width="6" />
    <circle cx="84" cy="86" r="13" fill="#FFC240" />
    <path fill-rule="evenodd" clip-rule="evenodd"
        d="M95 86c0 6.075-4.925 11-11 11s-11-4.925-11-11 4.925-11 11-11c2.425 0 4.668.785 6.486 2.115.974.712 2.194 1.094 3.359.782 2.169-.582 3.112-3.128 1.433-4.618A16.937 16.937 0 0 0 84 69c-9.389 0-17 7.611-17 17s7.611 17 17 17 17-7.611 17-17c0-1.548-1.533-2.526-3.028-2.125l-1.782.478c-.727.194-1.19.894-1.19 1.647Z"
        fill="#2d3436" />
</svg>
  