<svg width="32" height="32" viewBox="0 0 32 32" fill="none" xmlns="http://www.w3.org/2000/svg">
    <path
        d="M.74 11.344s-.757-.547.152-1.276l2.119-1.894s.606-.638 1.247-.082l19.55 14.801v7.098s-.01 1.114-1.44.991L.74 11.344Z"
        fill="#2489CA" />
    <path
        d="m5.78 15.919-5.04 4.58s-.517.386 0 1.074l2.34 2.128s.556.597 1.377-.082l5.342-4.05-4.02-3.65Z"
        fill="#1070B3" />
    <path d="M14.626 15.957 23.868 8.9l-.06-7.06s-.395-1.54-1.712-.739L9.8 12.294l4.827 3.662Z"
        fill="#0877B9" />
    <path
        d="M22.368 30.991c.537.55 1.187.37 1.187.37l7.202-3.549c.922-.628.792-1.408.792-1.408V5.212c0-.931-.953-1.253-.953-1.253L24.354.949c-1.364-.842-2.258.152-2.258.152s1.15-.827 1.712.74v28.02c0 .193-.041.382-.123.553-.165.331-.521.64-1.377.511l.06.066Z"
        fill="#3C99D4" />
</svg>